<?xml version="1.0" encoding="UTF-8" standalone="no"?>


<svg version="1.1" id="svg183" xml:space="preserve" width="682.66669" height="682.66669" viewBox="0 0 682.66669 682.66669" xmlns="http://www.w3.org/2000/svg" xmlns:svg="http://www.w3.org/2000/svg"><defs id="defs187"><clipPath clipPathUnits="userSpaceOnUse" id="clipPath197"><path d="M 0,512 H 512 V 0 H 0 Z" id="path195"></path></clipPath></defs><g id="g189" transform="matrix(1.3333333,0,0,-1.3333333,0,682.66667)"><g id="g191"><g id="g193" clip-path="url(#clipPath197)"><g id="g199" transform="translate(392,20)"><path d="m 0,0 h -272 c -55.229,0 -100,44.771 -100,100 v 272 c 0,55.229 44.771,100 100,100 H 0 c 55.229,0 100,-44.771 100,-100 V 100 C 100,44.771 55.229,0 0,0 Z" style="fill:none;stroke:#000000;stroke-width:40;stroke-linecap:round;stroke-linejoin:round;stroke-miterlimit:10;stroke-dasharray:none;stroke-opacity:1" id="path201"></path></g><g id="g203" transform="translate(349,256)"><path d="m 0,0 c 0,-51.362 -41.638,-93 -93,-93 -51.362,0 -93,41.638 -93,93 0,51.362 41.638,93 93,93 C -41.638,93 0,51.362 0,0 Z" style="fill:none;stroke:#000000;stroke-width:40;stroke-linecap:round;stroke-linejoin:round;stroke-miterlimit:10;stroke-dasharray:none;stroke-opacity:1" id="path205"></path></g><g id="g207" transform="translate(413.333,388.3335)"><path d="m 0,0 c 0,13.807 -11.192,25 -25,25 -13.807,0 -25,-11.193 -25,-25 0,-13.807 11.193,-25 25,-25 13.808,0 25,11.193 25,25" style="fill:#000000;fill-opacity:1;fill-rule:nonzero;stroke:none" id="path209"></path></g></g></g></g></svg>