<svg width="204" height="75" viewBox="0 0 204 75" fill="none" xmlns="http://www.w3.org/2000/svg">
<path d="M101.64 0.879883C129.631 0.879883 154.933 5.05653 173.206 11.7803C182.346 15.1434 189.681 19.1268 194.715 23.5059C199.751 27.8869 202.4 32.5853 202.4 37.4004C202.4 42.2154 199.751 46.913 194.715 51.2939C189.681 55.6731 182.346 59.6564 173.206 63.0195C154.933 69.7433 129.631 73.9199 101.64 73.9199C73.6487 73.9199 48.3461 69.7433 30.0732 63.0195C20.9337 59.6565 13.5991 55.673 8.56543 51.2939C3.52972 46.913 0.880026 42.2154 0.879883 37.4004C0.879883 32.5853 3.52959 27.8869 8.56543 23.5059C13.5991 19.1269 20.9337 15.1433 30.0732 11.7803C48.3461 5.0565 73.6487 0.879918 101.64 0.879883Z" stroke="#111111" stroke-width="1.76"/>
<g clip-path="url(#clip0_1174_103)">
<path d="M131.917 52.5392H129.574C128.93 52.5392 128.422 52.0354 128.422 51.3959V32.6194C128.422 32.6194 128.911 28.027 120.222 28.1045C111.534 28.182 109.776 32.7744 109.776 32.7744C109.776 32.7744 107.199 38.2969 113.076 38.7232C118.094 39.0914 116.903 34.2858 116.454 32.8713C116.356 32.5612 116.395 32.1931 116.571 31.9218C117.001 31.3211 118.523 30.8561 120.613 31.8637V38.8976C120.613 38.8976 110.304 40.2153 108.293 47.4817C107.512 50.272 107.453 54.7482 112.588 56.899C117.723 59.0499 120.554 55.6589 120.554 55.6589C120.554 55.6589 121.725 57.6354 125.63 57.6354C129.535 57.6354 131.898 52.5392 131.898 52.5392H131.917ZM120.105 51.6284C119.968 51.8997 119.773 52.1516 119.402 52.171C118.387 52.2485 117.098 51.6284 116.59 50.7565C114.404 46.8423 120.534 44.2263 120.534 44.2263C120.534 44.2263 120.534 50.7565 120.105 51.6284Z" fill="#111111"/>
<path d="M154.449 17.875C154.449 17.875 151.442 24.2501 142.52 29.9276H145.683L145.897 52.6184C145.897 52.6184 146.112 58.8191 154.215 57.327C158.549 56.5326 159.721 51.3976 159.721 51.3976L156.499 52.1339C155.464 52.3665 154.449 51.6301 154.449 50.6031V29.9276H159.721V27.1761L154.449 27.2342V17.875Z" fill="#111111"/>
<path d="M71.1939 26.0703L61.1973 31.3603L62.7202 33.8406L62.8569 53.4697C62.8569 54.4192 62.564 55.3299 62.0368 56.105L61.6073 56.7057H72.463L72.0139 56.0856C71.4868 55.3687 71.2134 54.5161 71.2134 53.6247V35.5264C71.2134 34.7513 71.7015 34.0731 72.4239 33.8406C72.4435 33.8406 72.7363 33.7631 72.7754 33.7631C73.8297 33.6468 74.7474 34.4219 74.7474 35.6233L74.7864 53.2953C74.7864 54.3611 74.4545 55.4074 73.8297 56.2794L73.5173 56.7251H84.373L83.6701 55.7368C83.2992 55.2137 83.1039 54.5936 83.1039 53.9541L83.0454 35.352C83.0454 33.5112 82.362 31.7285 81.0734 30.4302C80.019 29.3644 78.4766 28.3762 76.3289 28.1631C72.6582 27.8143 71.2329 28.6862 71.2329 28.6862V26.1091L71.1939 26.0703Z" fill="#111111"/>
<path d="M94.5669 16.8672L84.5703 22.1572L86.0932 24.6375L86.2299 53.7033C86.2299 54.4978 85.9956 55.2728 85.527 55.9317L84.9803 56.7261H95.836L95.1136 55.7379C94.7622 55.2535 94.5669 54.6915 94.5669 54.0908V35.5275C94.5669 34.7524 95.055 34.0742 95.7775 33.8416C95.797 33.8416 96.0899 33.7641 96.1289 33.7641C97.1832 33.6479 98.1009 34.423 98.1009 35.6243L98.1399 53.742C98.1399 54.5171 97.9056 55.2728 97.4566 55.9123L96.8708 56.7261H107.727L107.238 56.0479C106.731 55.331 106.457 54.4784 106.457 53.587L106.399 35.3531C106.399 33.5122 105.716 31.7295 104.427 30.4312C103.373 29.3655 101.83 28.3773 99.6824 28.1641C96.0118 27.8153 94.5865 28.6873 94.5865 28.6873V16.8672H94.5669Z" fill="#111111"/>
<path d="M141.172 16.8669L131.195 22.1569L133.304 23.7264V51.6684C133.304 52.4822 133.05 53.2961 132.562 53.9549L130.629 56.6871H144.413L142.558 54.3231C141.836 53.4123 141.446 52.3078 141.446 51.1452L141.172 16.8281V16.8669Z" fill="#111111"/>
<path d="M57.5095 49.3824V24.4051C57.5486 23.2425 58.0953 21.6729 58.7591 20.7235L60.8287 17.875H45.2871L47.3177 20.7235C47.962 21.6536 48.6063 23.3781 48.6063 24.6764V49.4986C48.6063 50.7194 48.2353 52.5409 47.4934 53.4516L45.2871 56.707H60.8287L58.4663 53.3741C57.7243 52.5021 57.5095 50.6806 57.5095 49.3824Z" fill="#111111"/>
</g>
<defs>
<clipPath id="clip0_1174_103">
<rect width="116.16" height="44" fill="white" transform="translate(43.1211 15.8398)"/>
</clipPath>
</defs>
</svg>
