<svg width="541" height="690" viewBox="0 0 541 690" fill="none" xmlns="http://www.w3.org/2000/svg">
<g clip-path="url(#clip0_1176_113)">
<path d="M137.896 661.76C-16.6479 579.5 -38.8578 372.623 59.2358 238.184C143.757 129.834 273.006 66.9113 393.618 6.75117C448.217 -17.1901 508.677 27.6231 517.623 82.2583C540.141 207.49 552.788 336.711 524.717 462.249C485.85 626.462 298.3 747.089 137.896 661.76ZM156.404 628.918C296.449 695.523 441.739 587.788 480.915 449.665C508.677 343.157 503.742 224.985 493.254 115.715C485.233 18.1079 428.783 5.52341 350.123 50.9505C251.413 101.595 145.607 163.597 81.4457 253.531C-2.1498 374.772 16.3584 558.321 156.404 628.918Z" fill="#121212"></path>
<path d="M355.965 407.617C355.965 407.617 327.586 552.8 220.547 598.841L355.965 407.617Z" fill="#121212"></path>
<path d="M282.246 612.962C282.246 612.962 474.115 442.303 496.325 118.789C496.325 118.789 534.575 533.157 282.246 612.962Z" fill="#121212"></path>
<path d="M236.296 183.242C236.296 183.242 77.742 302.642 37.6409 564.461C37.6409 564.461 1.24141 311.85 236.296 183.242Z" fill="#121212"></path>
</g>
<defs>
<clipPath id="clip0_1176_113">
<rect width="541" height="690" fill="white"></rect>
</clipPath>
</defs>
</svg>