<svg width="2440" height="690" viewBox="0 0 2440 690" fill="none" xmlns="http://www.w3.org/2000/svg">
<g clip-path="url(#clip0_644_121)">
<path d="M137.896 661.76C-16.6479 579.5 -38.8578 372.623 59.2358 238.184C143.757 129.834 273.006 66.9113 393.618 6.75117C448.217 -17.1901 508.677 27.6231 517.623 82.2583C540.141 207.49 552.788 336.711 524.717 462.249C485.85 626.462 298.3 747.089 137.896 661.76ZM156.404 628.918C296.449 695.523 441.739 587.788 480.915 449.665C508.677 343.157 503.742 224.985 493.254 115.715C485.233 18.1079 428.783 5.52341 350.123 50.9505C251.413 101.595 145.607 163.597 81.4457 253.531C-2.1498 374.772 16.3584 558.321 156.404 628.918Z" fill="#FFFFFF"></path>
<path d="M355.965 407.617C355.965 407.617 327.586 552.8 220.547 598.841L355.965 407.617Z" fill="#FFFFFF"></path>
<path d="M282.246 612.962C282.246 612.962 474.115 442.303 496.325 118.789C496.325 118.789 534.575 533.157 282.246 612.962Z" fill="#FFFFFF"></path>
<path d="M236.296 183.242C236.296 183.242 77.742 302.642 37.6409 564.461C37.6409 564.461 1.24141 311.85 236.296 183.242Z" fill="#FFFFFF"></path>
<path d="M2000.73 581.343H1963.71C1953.53 581.343 1945.51 573.363 1945.51 563.234V265.81C1945.51 265.81 1953.23 193.065 1815.96 194.293C1678.69 195.52 1650.92 268.265 1650.92 268.265C1650.92 268.265 1610.21 355.743 1703.06 362.496C1782.33 368.327 1763.52 292.206 1756.42 269.8C1754.88 264.889 1755.5 259.057 1758.27 254.76C1765.06 245.245 1789.12 237.878 1822.13 253.839V365.258C1822.13 365.258 1659.25 386.13 1627.48 501.232C1615.14 545.432 1614.22 616.335 1695.34 650.405C1776.47 684.475 1821.2 630.761 1821.2 630.761C1821.2 630.761 1839.71 662.069 1901.4 662.069C1963.1 662.069 2000.42 581.343 2000.42 581.343H2000.73ZM1814.11 566.917C1811.95 571.214 1808.86 575.205 1803 575.512C1786.96 576.739 1766.6 566.917 1758.58 553.105C1724.03 491.103 1820.89 449.666 1820.89 449.666C1820.89 449.666 1820.89 553.105 1814.11 566.917Z" fill="#FFFFFF"></path>
<path d="M2356.72 32.2266C2356.72 32.2266 2309.21 133.21 2168.24 223.143H2218.21L2221.61 582.569C2221.61 582.569 2225 680.79 2353.02 657.155C2421.5 644.571 2440 563.232 2440 563.232L2389.11 574.896C2372.76 578.579 2356.72 566.915 2356.72 550.647V223.143H2440V179.558L2356.72 180.478V32.2266Z" fill="#FFFFFF"></path>
<path d="M1041.39 162.061L883.457 245.855L907.518 285.143L909.677 596.073C909.677 611.113 905.05 625.539 896.721 637.817L889.935 647.332H1061.44L1054.35 637.51C1046.02 626.153 1041.7 612.648 1041.7 598.529V311.847C1041.7 299.569 1049.41 288.827 1060.83 285.143C1061.14 285.143 1065.76 283.916 1066.38 283.916C1083.04 282.074 1097.54 294.351 1097.54 313.382L1098.15 593.311C1098.15 610.192 1092.91 626.767 1083.04 640.579L1078.1 647.639H1249.61L1238.51 631.985C1232.65 623.698 1229.56 613.875 1229.56 603.746L1228.64 309.085C1228.64 279.925 1217.84 251.687 1197.48 231.122C1180.82 214.24 1156.45 198.586 1122.52 195.21C1064.53 189.685 1042.01 203.497 1042.01 203.497V162.674L1041.39 162.061Z" fill="#FFFFFF"></path>
<path d="M1410.63 16.2695L1252.7 100.064L1276.76 139.352L1278.92 599.762C1278.92 612.346 1275.21 624.624 1267.81 635.06L1259.17 647.644H1430.68L1419.27 631.99C1413.72 624.317 1410.63 615.415 1410.63 605.9V311.852C1410.63 299.575 1418.34 288.832 1429.76 285.149C1430.07 285.149 1434.69 283.921 1435.31 283.921C1451.97 282.079 1466.47 294.357 1466.47 313.387L1467.08 600.375C1467.08 612.653 1463.38 624.624 1456.29 634.753L1447.03 647.644H1618.54L1610.83 636.901C1602.81 625.544 1598.49 612.039 1598.49 597.92L1597.57 309.09C1597.57 279.931 1586.77 251.692 1566.41 231.127C1549.75 214.246 1525.38 198.592 1491.45 195.215C1433.46 189.69 1410.94 203.503 1410.94 203.503V16.2695H1410.63Z" fill="#FFFFFF"></path>
<path d="M2146.95 16.2682L1989.32 100.063L2022.63 124.925V567.531C2022.63 580.423 2018.62 593.314 2010.91 603.75L1980.37 647.029H2198.15L2168.85 609.582C2157.43 595.156 2151.26 577.661 2151.26 559.244L2146.95 15.6543V16.2682Z" fill="#FFFFFF"></path>
<path d="M825.153 531.31V135.665C825.77 117.249 834.407 92.3867 844.895 77.3467L877.593 32.2266H632.051L664.132 77.3467C674.311 92.0798 684.491 119.397 684.491 139.962V533.152C684.491 552.489 678.63 581.341 666.908 595.768L632.051 647.333H877.593L840.268 594.54C828.546 580.728 825.153 551.875 825.153 531.31Z" fill="#FFFFFF"></path>
</g>
<defs>
<clipPath id="clip0_644_121">
<rect width="2440" height="690" fill="white"></rect>
</clipPath>
</defs>
</svg>